# xmcd CD database file
#
# Track frame offsets:
#	150
#	34408
#	59073
#	80080
#	108596
#	136662
#	159890
#	165616
#	189559
#	222473
#	237473
#	257451
#
# Disc length: 3692 seconds
#
# Revision: 0
# Processed by: cddbd v1.5.1PL0 Copyright (c) Steve Scherf et al.
# Submitted via: CDex 1.51
#
DISCID=aa0e6a0c
DTITLE=Catali Antonini - Academy House
DYEAR=1996
DGENRE=Jazz
TTITLE0=Casablanca
TTITLE1=Prince of Darkness
TTITLE2=River Dance
TTITLE3=Academy House
TTITLE4=Sailing By Night
TTITLE5=At Dawn
TTITLE6=Blobland
TTITLE7=Wabash III
TTITLE8=Ain Es Salam
TTITLE9=Voce Mintagnole
TTITLE10=Bahamas Mafia
TTITLE11=Sophisticated Lady
EXTD=YEAR: 1996
EXTT0=
EXTT1=
EXTT2=
EXTT3=
EXTT4=
EXTT5=
EXTT6=
EXTT7=
EXTT8=
EXTT9=
EXTT10=
EXTT11=
PLAYORDER=
